<?xml version="1.0" encoding="utf-8"?>
<!-- Generator: Adobe Illustrator 22.0.1, SVG Export Plug-In . SVG Version: 6.00 Build 0)  -->
<svg version="1.1" id="Layer_1" xmlns="http://www.w3.org/2000/svg" xmlns:xlink="http://www.w3.org/1999/xlink" x="0px" y="0px"
	 viewBox="0 0 658 658" style="enable-background:new 0 0 658 658;" xml:space="preserve">
<style type="text/css">
	.st0{fill:#2F3A3D;}
	.st1{fill:#2B3538;}
	.st2{fill:#6F7B7D;}
	.st3{fill:#96A1A4;}
	.st4{fill:#C9D0CF;}
	.st5{fill:#0A0A0A;}
	.st6{fill:url(#SVGID_1_);}
	.st7{opacity:0.83;enable-background:new    ;}
	.st8{fill:url(#SVGID_2_);}
	.st9{fill:url(#SVGID_3_);}
	.st10{fill:url(#SVGID_4_);}
</style>
<g>
	<ellipse cx="322.2" cy="329" rx="213.2" ry="210.7"/>
	<path class="st0" d="M174.4,461c-32-34.9-51.4-81.2-51.4-132c0-108.7,89.2-196.9,199.2-196.9s199,88.2,199,196.9
		s-89.1,196.9-199.1,196.9C263.5,525.9,210.8,500.8,174.4,461"/>
	<path class="st1" d="M157.6,432.4C135.8,401.5,123,364,123,323.6c0-105.7,87.3-191.3,195-191.3S513,218,513,323.6
		s-87.3,191.3-195,191.3C251.6,514.9,192.8,482.3,157.6,432.4"/>
	<circle class="st2" cx="321.1" cy="320.8" r="191.9"/>
	<ellipse class="st3" cx="316.9" cy="316.9" rx="175.1" ry="176.7"/>
	<ellipse class="st4" cx="311.6" cy="302.1" rx="148.2" ry="150.4"/>
	<ellipse class="st3" cx="345.2" cy="286.4" rx="59.5" ry="55.9"/>
	<ellipse class="st4" cx="268.7" cy="421.5" rx="55.3" ry="45.9"/>
	<ellipse class="st3" cx="268.7" cy="422.7" rx="49.3" ry="42"/>
	<ellipse class="st4" cx="451.8" cy="284" rx="27.1" ry="28.5"/>
	<ellipse class="st3" cx="451.8" cy="283.4" rx="23.4" ry="25.3"/>
	<circle class="st4" cx="432.7" cy="222.4" r="20.2"/>
	<circle class="st4" cx="285.7" cy="160.8" r="14"/>
	<ellipse transform="matrix(0.267 -0.9637 0.9637 0.267 -153.5544 387.494)" class="st4" cx="177.9" cy="294.7" rx="21.7" ry="28"/>
	
		<ellipse transform="matrix(0.9002 -0.4355 0.4355 0.9002 -140.3407 116.8206)" class="st4" cx="184.7" cy="364.6" rx="22.9" ry="20.8"/>
	
		<ellipse transform="matrix(0.9002 -0.4355 0.4355 0.9002 -141.2753 117.0045)" class="st3" cx="184.6" cy="366.7" rx="19.1" ry="17.4"/>
	
		<ellipse transform="matrix(0.267 -0.9637 0.9637 0.267 -155.8471 384.6266)" class="st3" cx="174.9" cy="294.8" rx="18.7" ry="21.8"/>
	<circle class="st3" cx="360.6" cy="371.9" r="15.5"/>
	<path class="st5" d="M287.4,418.3"/>
	
		<linearGradient id="SVGID_1_" gradientUnits="userSpaceOnUse" x1="332.8" y1="684.5444" x2="332.8" y2="819.4006" gradientTransform="matrix(1 0 0 1 0 -420)">
		<stop  offset="0" style="stop-color:#000000"/>
		<stop  offset="0.153" style="stop-color:#170000"/>
		<stop  offset="0.4748" style="stop-color:#530000"/>
		<stop  offset="0.9354" style="stop-color:#B10000"/>
		<stop  offset="1" style="stop-color:#BF0000"/>
	</linearGradient>
	<path class="st6" d="M226.8,271.2c0,0-21.2,81.8-25.5,128c0,0,17.7-3,34-4.3c0,0,11.2-55.2,11.4-56.5c0.2-1.4,24.7,47.5,26.3,51.9
		c0,0,30.4-1.4,34.5-1.6c0,0,14.9-52.7,14.7-54.9c-0.2-2.2,22.8,51.1,23.9,53.6c0,0,56-51.1,55.7-52c-0.2-1-16.3,50.7-17.4,55.6
		c0,0,31.8,2.2,34.8,3.3c0,0,41.6-115.5,45.1-119c0,0-32.8-4.6-35.3-4.5c0,0-45.5,34.6-62.4,50.8c0,0-21.4-49.3-26.5-56.7
		c0,0-27.6-0.8-34.4,0c0,0-12.6,41.8-16.2,55.8c0,0-25.5-49.3-28.2-52.2C261.3,268.3,232,270.1,226.8,271.2z"/>
	<path class="st7" d="M226.8,271.2c0,0-21.2,81.8-25.5,128c0,0,17.7-3,34-4.3c0,0,11.2-55.2,11.4-56.5c0.2-1.4,24.7,47.5,26.3,51.9
		c0,0,30.4-1.4,34.5-1.6c0,0,14.9-52.7,14.7-54.9c-0.2-2.2,22.8,51.1,23.9,53.6c0,0,56-51.1,55.7-52c-0.2-1-16.3,50.7-17.4,55.6
		c0,0,31.8,2.2,34.8,3.3c0,0,41.6-115.5,45.1-119c0,0-32.8-4.6-35.3-4.5c0,0-45.5,34.6-62.4,50.8c0,0-21.4-49.3-26.5-56.7
		c0,0-27.6-0.8-34.4,0c0,0-12.6,41.8-16.2,55.8c0,0-25.5-49.3-28.2-52.2C261.3,268.3,232,270.1,226.8,271.2z"/>
	
		<linearGradient id="SVGID_2_" gradientUnits="userSpaceOnUse" x1="60.3293" y1="233.1606" x2="546.1027" y2="233.1606" gradientTransform="matrix(1 0 0 -1 0 660)">
		<stop  offset="0" style="stop-color:#000000"/>
		<stop  offset="0.153" style="stop-color:#170000"/>
		<stop  offset="0.4748" style="stop-color:#530000"/>
		<stop  offset="0.9354" style="stop-color:#B10000"/>
		<stop  offset="1" style="stop-color:#BF0000"/>
	</linearGradient>
	<path class="st8" d="M120.5,397.5c-2.5,2-4.3,3.4-6.6,5.5c-4.7,4.3-9.2,8.9-13.3,13.7c-4.1,4.8-7.8,9.8-11,15
		c-3.1,5.2-5.7,10.6-7.2,16.1c-1.6,5.5-2.2,11-1.6,16.4s2.5,10.6,5.4,15.4c1.5,2.4,3.1,4.8,5.1,7c0.5,0.6,1,1.1,1.5,1.7
		c0.5,0.5,1,1.1,1.5,1.6c1,1,2,1.9,3.1,2.8c4.4,3.5,9.6,6.2,15.3,8.1c5.7,2,11.9,3.2,18.2,3.9c6.3,0.7,12.7,1,19.2,0.8
		c13-0.3,26.1-1.9,39.2-4.3c26.1-4.8,51.9-12.5,77.1-21.6c25.3-9.1,50.1-19.7,74.5-31.1c24.4-11.5,48.4-23.9,72-37
		c47.2-26.2,82.5-47.7,126.9-78.6c-43.4,32.4-77.7,55.4-124.2,83.3c-23.3,13.9-46.9,27.2-71.1,39.6s-48.9,23.9-74.2,34
		S219,508.6,192,514.6c-13.5,2.9-27.2,5.1-41.3,5.9c-7,0.4-14.1,0.4-21.3-0.2c-7.2-0.6-14.4-1.8-21.6-4s-14.3-5.4-20.7-10.2
		c-1.6-1.2-3.1-2.5-4.6-3.8c-0.8-0.7-1.4-1.4-2.1-2c-0.7-0.7-1.3-1.3-2-2.1c-2.6-2.8-5-5.9-7.1-9.1c-4.3-6.6-7.4-14.3-8.7-22.3
		c-1.3-8.1-0.6-16.3,1.3-23.8c1.9-7.6,4.9-14.6,8.5-21.1s7.8-12.5,12.3-18.2s9.4-11,14.4-16c2.5-2.5,5.2-5,7.8-7.3
		c1.3-1.2,2.7-2.4,4.1-3.5l2.1-1.7l0.8-0.6C115.9,382.4,116.9,386.7,120.5,397.5z"/>
	
		<linearGradient id="SVGID_3_" gradientUnits="userSpaceOnUse" x1="591.4724" y1="467.3299" x2="601.9048" y2="460.9421" gradientTransform="matrix(0.9723 0.2338 0.2338 -0.9723 -132.5003 638.5487)">
		<stop  offset="0" style="stop-color:#420000"/>
		<stop  offset="1" style="stop-color:#D10000"/>
	</linearGradient>
	<path class="st9" d="M543.6,330.7c0,0,15.5-8.1,22.7-5.4l-3.5-8.4L543.6,330.7z"/>
	
		<linearGradient id="SVGID_4_" gradientUnits="userSpaceOnUse" x1="-32.6924" y1="1083.8582" x2="-11.7953" y2="1083.8582" gradientTransform="matrix(0.2338 -0.9723 0.9723 0.2338 -494.7288 46.9283)">
		<stop  offset="0" style="stop-color:#420000"/>
		<stop  offset="1" style="stop-color:#D10000"/>
	</linearGradient>
	<path class="st10" d="M544.1,330.4c0,0,9.4-8.5,11.2-18.8l7.6,5.3L544.1,330.4z"/>
	<path class="st4" d="M558.2,306.8c-2.1,1.1-3.2,3.4-2.8,5.7l1.2,7.4c0.2,1.1,0.9,2,1.9,2.4l7,2.6c2.2,0.8,4.7,0.2,6.2-1.6
		c5.3-6.4,17.9-21.8,24.2-32.3c0.5-0.8-0.3-1.7-1.1-1.4C583.1,293.7,565.6,302.9,558.2,306.8z"/>
</g>
</svg>
