<svg enable-background="new 0 0 1000 1000" viewBox="0 0 1000 1000" xmlns="http://www.w3.org/2000/svg"><g fill="#fff"><path d="m337.8 299.7s-31.7 122.3-38.1 191.5c0 0 26.5-4.5 50.9-6.4 0 0 16.8-82.6 17.1-84.5.3-2.1 36.9 71 39.3 77.6 0 0 45.5-2.1 51.6-2.4 0 0 22.3-78.8 22-82.1s34.1 76.4 35.7 80.2c0 0 83.8-76.4 83.3-77.8-.3-1.5-24.4 75.8-26 83.2 0 0 47.6 3.3 52.1 4.9 0 0 62.2-172.8 67.5-178 0 0-49.1-6.9-52.8-6.7 0 0-68.1 51.8-93.3 76 0 0-32-73.7-39.6-84.8 0 0-41.3-1.2-51.5 0 0 0-18.8 62.5-24.2 83.5 0 0-38.1-73.7-42.2-78.1-.2-.4-44.1 2.3-51.8 3.9z"/><path d="m92.2 575.2s7.9 88 20 135c0 0 16.4-9.2 32-16.2 0 0-8.4-58.3-8.7-59.6-.3-1.4 41 38.1 44.2 41.8 0 0 29.4-12.1 33.4-13.7 0 0-10.6-118-11.5-133.4 0 0-27.5 8.9-33.9 12.1 0 0 2.3 45.6 3.7 60.6 0 0-42.5-39.6-46.1-41.5-.2-.1-28.4 12-33.1 14.9z"/><path d="m243.9 581.8v-1.3l26.9-7.8-1.6-16.8-27.6 7.8c-3.3 1-17.8 4.9-21 6.4 0 0 4.9 54.8 8.8 86 24.4-8.2 51.2-15.5 51.2-15.5l-1.5-14.3-29.4 8v-.1c-.4-3.7-1.9-15.3-2.4-19.8l28.5-8.5-1.9-15.8-28.2 8.2c0 .1-1-9.5-1.8-16.5z"/><path d="m279.8 554 32.8 78.8s11.2-2.6 20.3-3.9l18-86.2-22.1 2.7-9.9 51.4-18.9-46.3z"/><path d="m385.2 558.2.3-1.3 28-1.2 2.4-16.7-28.7 1.1c-3.5.2-18.4.6-21.9 1.3 0 0-8.2 54.4-11.7 85.6 25.6-2.2 53.4-3 53.4-3l1.9-14.2-30.4.8v-.1c.5-3.7 1.8-15.3 2.4-19.8l29.7-1.5 1.9-15.8-29.3 1.3s1.2-9.6 2-16.5z"/><path d="m487.4 559.4c1.1-8.2-.6-14.1-5.2-17.9s-12.1-5.4-22.5-4.8l-26.1 1.5-11.8 86.3 18.2-1 3.9-28.5 7 .5 11.6 26.7 22.4.5-19.5-39.6c5.7-1 10.6-3.7 14.7-8.1 4-4.5 6.5-9.6 7.3-15.6zm-18.2 2.4c-.6 4-2.1 7-4.7 8.7-2.6 1.8-7.6 2.9-15 3.3l-2.7.2 3.1-22.7 2.7-.2c7-.4 11.7.2 14 1.9 2.3 1.6 3.2 4.6 2.6 8.8z"/><path d="m492.1 623.5s19.8 1 22.6.9c0 0 10.9-37.2 10.7-38.7-.1-1.5 15.1 34.5 15.8 36.1 0 0 37.9-34.1 37.7-34.7-.1-.7-11.7 36.3-12.5 39.6 0 0 20 1.6 23.5 1.4 0 0 28.9-78.8 31.2-81.1 0 0-22-3.2-23.7-3.2 0 0-30.7 23.1-42.2 33.9 0 0-14.2-33.2-17.6-38.2 0 0-18.6-.7-23.1-.1.1-.1-23.5 81.1-22.4 84.1z"/><path d="m825.2 594.5s-40.1 46-57.8 74.5c0 0 12.4 3.8 23.4 8.2 0 0 25.1-32.1 25.6-32.8.6-.8.6 38.7.2 42 0 0 20.1 8.9 22.8 10.1 0 0 53.9-61.7 61.1-69.5 0 0-17.6-9.4-22.2-11.1 0 0-21.6 22.9-28.5 30.8 0 0-.6-40.1-1.4-42.8 0-.1-19.5-8.4-23.2-9.4z"/><path d="m782.1 611.7c.3-5.6-.5-10.8-2.4-15.9-1.9-5-4.6-9.3-8.2-13s-7.8-6.3-12.5-8c-4.8-1.7-9.9-2.2-15.2-1.7-5.4.5-10.6 2.1-15.6 4.7-5.1 2.6-9.5 6.1-13.4 10.4s-7 9.2-9.3 14.8c-2.6 6.2-3.9 12.5-3.9 18.7s1.3 12 4 17.4c2.1 4.2 4.7 7.8 8 10.8s7 5.2 11.2 6.7c4.7 1.7 9.8 2.2 15.1 1.7s10.5-2.1 15.7-4.7c5-2.6 9.4-6 13.3-10.3s7-9.3 9.3-14.8c2.3-5.6 3.6-11.2 3.9-16.8zm-23.6 10.4c-2.5 5.9-6.1 10.2-10.9 13s-9.7 3.4-14.5 1.7c-5-1.7-8.2-5.1-9.8-10.1-1.5-5-1.1-10.5 1.4-16.4s6.1-10.2 11-13.1c4.9-2.8 9.8-3.4 14.6-1.7s8 5.1 9.5 10.2c1.6 5.1 1.2 10.5-1.3 16.4z"/><path d="m695.3 592.3c.2-5.4-.6-10.5-2.5-15.4s-4.6-9.1-8.2-12.6c-3.6-3.6-7.7-6.2-12.4-7.8-4.7-1.7-9.8-2.2-15.1-1.8-5.3.5-10.4 1.9-15.4 4.4s-9.4 5.8-13.2 9.9-6.8 8.9-9.1 14.3c-2.5 6-3.8 12-3.7 18.1.1 6 1.4 11.7 4.1 16.9 2.1 4.1 4.7 7.6 8 10.5s7 5.1 11.1 6.6c4.7 1.6 9.7 2.2 14.9 1.8 5.2-.5 10.4-1.9 15.4-4.4 4.9-2.4 9.3-5.8 13.1-9.9 3.8-4.2 6.8-8.9 9.1-14.3 2.4-5.5 3.7-10.9 3.9-16.3zm-22.9 10.6c-2.4 5.8-6 10-10.9 12.7-4.8 2.7-9.7 3.2-14.6 1.5-5-1.7-8.3-5.1-9.9-10s-1.1-10.3 1.3-16.1c2.4-5.7 6.1-10 10.9-12.8 4.9-2.8 9.8-3.3 14.7-1.6 4.8 1.7 8 5 9.6 10.1 1.8 5.1 1.3 10.4-1.1 16.2z"/></g></svg>